<svg width="63" height="63" fill="none" xmlns="http://www.w3.org/2000/svg"><path d="M33.61 21.11c-.574-.573-1.29-.848-2.15-.822-.861.024-1.577.325-2.148.9-.572.572-.859 1.302-.859 2.187 0 .885.287 1.615.86 2.188l2.812 2.812H22.047c-.886 0-1.615.3-2.188.9-.573.6-.859 1.342-.859 2.225 0 .885.3 1.628.9 2.228.6.6 1.342.9 2.225.897h10l-2.89 2.89c-.573.574-.848 1.29-.822 2.15.024.861.325 1.577.9 2.148.572.572 1.302.859 2.187.859.885 0 1.615-.287 2.188-.86l8.124-8.124c.573-.573.86-1.303.86-2.188 0-.885-.287-1.615-.86-2.188L33.61 21.11zM31.5.25c4.323 0 8.385.82 12.188 2.46 3.802 1.639 7.109 3.866 9.921 6.68 2.813 2.813 5.039 6.12 6.678 9.922 1.64 3.803 2.46 7.865 2.463 12.188 0 4.323-.82 8.385-2.462 12.188-1.642 3.802-3.868 7.109-6.679 9.921-2.812 2.813-6.12 5.04-9.922 6.682-3.802 1.641-7.864 2.461-12.187 2.459-4.323 0-8.385-.82-12.188-2.462-3.802-1.642-7.109-3.868-9.921-6.679-2.813-2.812-5.04-6.12-6.682-9.922C1.068 39.886.248 35.824.25 31.5c0-4.323.82-8.385 2.462-12.188 1.642-3.802 3.868-7.109 6.679-9.921 2.812-2.813 6.12-5.04 9.921-6.682C23.116 1.068 27.178.248 31.5.25z" fill="#fff"/></svg>