<svg width="35" height="35" fill="none" xmlns="http://www.w3.org/2000/svg"><path fill-rule="evenodd" clip-rule="evenodd" d="M31.111 25.278a5.834 5.834 0 01-5.833 5.833H9.722a5.834 5.834 0 01-5.833-5.833V9.722A5.833 5.833 0 019.722 3.89h15.556a5.833 5.833 0 015.833 5.833v15.556zM13.36 11.303a7.453 7.453 0 118.282 12.394 7.453 7.453 0 01-8.282-12.394zm14.723-.789a2.592 2.592 0 10-4.31-2.88 2.592 2.592 0 004.31 2.88z" fill="#fff"/><path fill-rule="evenodd" clip-rule="evenodd" d="M25.278 0H9.722A9.722 9.722 0 000 9.722v15.556A9.722 9.722 0 009.722 35h15.556A9.722 9.722 0 0035 25.278V9.722A9.722 9.722 0 0025.278 0zm5.833 25.278a5.834 5.834 0 01-5.833 5.833H9.722a5.834 5.834 0 01-5.833-5.833V9.722A5.833 5.833 0 019.722 3.89h15.556a5.833 5.833 0 015.833 5.833v15.556z" fill="#fff"/><path d="M17.5 21.065a3.565 3.565 0 113.565-3.565 3.58 3.58 0 01-3.565 3.565z" fill="#fff"/></svg>