<svg width="62" height="84" fill="none" xmlns="http://www.w3.org/2000/svg"><path fill-rule="evenodd" clip-rule="evenodd" d="M23.542 5.455h-.002.001v3.616l-3.298 1.712.698-1.712s-4.61 3.636-6.026 5.138l.888-2.22s-4.504 4.63-5.772 6.28l.824-2.475C5.73 19.397 2.461 26.641 1.468 29.813c.66-.914 4.968-1.015 7.04-.952.127-.74 1.586-1.94 6.407-.824 4.82 1.116 7.759 1.015 8.626.824v3.87c-.782-.085-3.07-.508-5.962-1.522-3.615-1.269-11.925-1.586-16.492 0-2.053.713-.76 3.932.317 3.869l.002.01c.887 5.769 1.716 11.154 9.577 11.154 7.6 0 8.529-2.691 9.76-6.257.362-1.047.75-2.17 1.34-3.321.798-1.497 1.437-1.584 1.458-1.586v12.033l-.055.003c-.382-.012-1.366-.153-2.687-.341a237.932 237.932 0 00-3.529-.484c-4.22-.539-6.85 3.615-3.87 6.407.043-1.692.762-5.126 3.3-5.329 1.147-.092 3.76.351 5.398.63.689.116 1.206.204 1.37.21l.073.004v11.136c-4.643.08-8.717.675-11.492 1.151a4.013 4.013 0 00-1.916.887c-.948.804-.094 1.372 1.111 1.073 4-.99 8.293-1.355 12.297-1.36v22.25l3.361-1.268-.507 1.269 6.724-4.314-.952 2.03c1.903-1.374 5.9-4.415 6.66-5.582.762-1.167-.57 1.417-1.332 2.855 1.565-.825 5.062-3.4 6.534-7.105l-.761 3.552c1.163-.718 3.679-3.095 4.44-6.85v1.903c1.015-1.332 3.032-5.062 2.981-9.325l1.015 2.347c.233-.909.596-3.184.19-5.01h4.314c.507-.17 1.535-.775 1.585-1.84.614.084 1.853-.28 1.903-2.41.592-.994 1.814-4.06 1.967-8.374.152-4.313-1.248-7.506-1.967-8.563.127-.867-.127-2.588-2.156-2.537-.043-.655-.381-1.966-1.396-1.966h-2.03c-.401-3.256-1.56-10.25-2.98-12.18.464-.507 1.255-1.788.697-2.854l-.012-.022C51.05 15.634 43.164.568 23.542 0v5.455zm0 55.643V73.39c4.694.063 14.017-.317 13.953-2.284-.05-1.573-7.083-4.461-10.593-5.709 1.755.043 6.077.343 9.325 1.206 4.06 1.078 5.265.507 5.582-5.075.253-4.465-3.616-11.164-5.582-13.955 9.11.247 9.977-8.05 10.252-10.686l.024-.224c.203-1.877 1.564-2.77 2.22-2.981.507-1.522 2.283-1.65 3.108-1.522.507-3.806-1.438-9.367-2.474-11.672-1.878-.203-2.39-.888-2.41-1.205C40.908 7.917 28.828 5.33 23.542 5.455v53.892c4.409-.075 9.332.316 14.147 1.715.16.046.457.193.591.29.957.695-.218 1.33-1.371 1.069-2.901-.657-7.861-1.33-13.367-1.323zm0-12.887v-1.1c.44-.026 1.451-.168 2.77-.353 1.01-.143 2.198-.31 3.447-.47 4.221-.538 6.85 3.617 3.87 6.408-.043-1.692-.762-5.126-3.299-5.329-.968-.077-2.882.248-4.463.517-1.04.177-1.936.329-2.326.327zm0-19.35c.867.19 3.806.292 8.625-.824 4.82-1.117 6.28.084 6.407.824 2.072-.063 6.38.038 7.04.952-.993-3.172-4.262-10.416-9.387-14.019l.824 2.474c-1.268-1.649-5.772-6.28-5.772-6.28l.888 2.22c-1.417-1.5-6.026-5.137-6.026-5.137l.698 1.712-3.297-1.712v19.79zm0-28.861h-.002.001zm-.754 50.602l-.253 3.933c-.107-1.764-1.296-1.861-2.996-2a30.323 30.323 0 01-1-.093c-1.269 0-3.045-1.079-2.728-2.347.653-2.612 5.519-.761 6.977.507zm1.453 0l.253 3.933c.107-1.764 1.296-1.861 2.996-2a30.92 30.92 0 001-.093c1.27 0 3.045-1.079 2.728-2.347-.653-2.612-5.518-.761-6.977.507zM5.082 34.254c-.66.71-.57 2.495-.444 3.298.914-1.98 4.102-3.362 5.582-3.806-1.438-.127-4.478-.203-5.138.508zm18.472-1.524c.782-.085 3.07-.508 5.962-1.522 3.616-1.27 11.925-1.586 16.492 0 2.054.713.761 3.932-.317 3.869l-.002.01c-.887 5.769-1.715 11.154-9.576 11.154-7.6 0-8.53-2.691-9.76-6.257-.362-1.047-.75-2.17-1.34-3.321-.812-1.523-1.46-1.586-1.46-1.586V32.73zm5.547 4.84c-.127-.803-.216-2.588.444-3.298s3.7-.634 5.137-.508c-1.48.444-4.668 1.827-5.582 3.806z" fill="#fff"/></svg>