<svg width="243" height="180" fill="none" xmlns="http://www.w3.org/2000/svg"><g filter="url(#filter0_d_267_152)"><path d="M236.057 3.267v165.818h-35.058V36.544h-.972l-37.973 23.804v-31.09l41.05-25.99h32.953z" fill="#fff"/><path d="M104.131 86.338c0-12.636-1.3-23.215-3.93-31.708-2.57-8.474-6.262-14.944-11.135-19.314-4.828-4.378-10.546-6.573-17.107-6.573-9.86 0-17.715 4.966-23.528 14.654-5.804 9.675-8.67 24.032-8.724 42.938v.003c0 12.797 1.273 23.534 3.846 32.186l.003.007c2.614 8.553 6.385 15.772 11.272 20.209l1.344-1.48c-4.505-4.091-8.136-10.916-10.703-19.31-2.5-8.404-3.762-18.933-3.763-31.61.054-18.77 2.91-32.697 8.44-41.914 5.523-9.204 12.782-13.683 21.813-13.683 6.07 0 11.308 2.014 15.765 6.056l.004.004c4.517 4.05 8.056 10.154 10.56 18.41l.002.006c2.551 8.239 3.841 18.603 3.841 31.12v.002c.027 9.42-2.062 19.842-4.877 29.12-2.815 9.28-6.333 17.34-9.114 22.029l1.72 1.02c2.886-4.865 6.46-13.082 9.308-22.468 2.848-9.387 4.99-20.017 4.963-29.704zm0 0s0 0 0 0h-1l1-.003v.003zM89 138c5.667-9.554 14.185-32.554 14.131-51.662M71.959 29.743c-9.446 0-17.003 4.723-22.67 14.169M6 86.34v-.003C6 68.35 8.659 53.08 13.938 40.495c5.333-12.586 12.909-22.108 22.707-28.622l.001-.001C46.498 5.304 58.254 2 71.96 2s25.434 3.304 35.23 9.87l.003.002c9.854 6.57 17.457 16.12 22.79 28.706v.001c5.331 12.528 7.99 27.769 7.936 45.756v.003c0 18.073-4 37.858-9.341 50.623l1.845.772c5.454-13.036 9.496-33.085 9.496-51.392.054-18.178-2.631-33.703-8.095-46.545-5.463-12.89-13.297-22.771-23.521-29.588C98.127 3.39 85.998 0 71.959 0 57.92 0 45.765 3.39 35.537 10.207c-10.172 6.764-17.98 16.62-23.442 29.51l-.001.003C6.686 52.612 4.001 68.16 4.001 86.337c-.055 18.262 4.179 38.365 9.575 51.392l1.848-.765C10.133 124.191 5.947 104.351 6 86.341zM237.057 3.267v-1h-34.243l-.245.155-41.05 25.99-.465.295v33.448l1.531-.96 37.414-23.453v132.343h37.058V3.267z" stroke="#fff" stroke-width="2"/></g><defs><filter id="filter0_d_267_152" x="0" y="0" width="242.057" height="179.085" filterUnits="userSpaceOnUse" color-interpolation-filters="sRGB"><feFlood flood-opacity="0" result="BackgroundImageFix"/><feColorMatrix in="SourceAlpha" values="0 0 0 0 0 0 0 0 0 0 0 0 0 0 0 0 0 0 127 0" result="hardAlpha"/><feOffset dy="4"/><feGaussianBlur stdDeviation="2"/><feComposite in2="hardAlpha" operator="out"/><feColorMatrix values="0 0 0 0 0 0 0 0 0 0 0 0 0 0 0 0 0 0 0.25 0"/><feBlend in2="BackgroundImageFix" result="effect1_dropShadow_267_152"/><feBlend in="SourceGraphic" in2="effect1_dropShadow_267_152" result="shape"/></filter></defs></svg>