<svg width="280" height="178" fill="none" xmlns="http://www.w3.org/2000/svg"><path d="M159.414 176.246v-23.785l.3-.294 59.323-58.156.006-.005c5.66-5.717 10.369-10.786 14.13-15.21 3.738-4.399 6.519-8.633 8.363-12.7 1.831-4.04 2.748-8.349 2.748-12.94 0-5.242-1.187-9.665-3.515-13.315l-.004-.006c-2.345-3.732-5.568-6.613-9.693-8.648-4.128-2.037-8.841-3.068-14.162-3.068-5.477 0-10.229 1.138-14.287 3.38l-.009.005c-4.057 2.189-7.2 5.304-9.444 9.363-2.186 4.053-3.299 8.916-3.299 14.626v1h-31.459v-1c0-11.006 2.514-20.624 7.577-28.816 5.051-8.174 12.007-14.501 20.844-18.976l.003-.002C195.73 3.224 205.902 1 217.328 1c11.586 0 21.812 2.166 30.652 6.53 8.826 4.356 15.702 10.342 20.594 17.963 4.952 7.629 7.419 16.332 7.419 26.077 0 6.53-1.25 12.94-3.742 19.229-2.5 6.305-6.878 13.238-13.092 20.794l-.001.002-.772-.635c-6.12 7.51-14.715 16.606-25.787 27.288l-73.185 57.998zm0 0H278.58v-27.87h-74.202l28.925-29.417-73.889 57.287zm-92.57-148.46c-10.627 0-19.028 5.286-25.203 15.856M6.552 136.113l.25.633h35.855l-.794-1.475c-.744-1.379-1.239-2.234-1.593-2.846l-.074-.129c-.36-.621-.539-.941-.711-1.353-.248-.594-.477-1.359-1.023-3.18-.277-.926-.636-2.124-1.121-3.712-2.744-9.167-4.102-20.521-4.047-34.089v-.001c.056-20.29 3.165-35.52 9.21-45.812v-.002c6.03-10.32 14.129-15.36 24.34-15.36 6.818 0 12.696 2.272 17.684 6.831l.004.004c4.999 4.514 8.928 11.288 11.732 20.415 2.799 9.11 4.212 20.409 4.212 33.921 0 20.496-2.268 34.953-8.355 45.28l-.889 1.508h34.446l.251-.63c5.343-13.385 7.758-27.37 7.758-46.158 0-18.671-2.655-34.66-8-47.94-5.289-13.277-12.937-23.46-22.97-30.489C92.679 4.497 80.705 1 66.843 1 52.981 1 41.008 4.497 30.97 11.529l-.003.002C20.991 18.558 13.344 28.74 8 42.017v.002C2.71 55.242.055 71.23 0 89.955v.003c0 18.671 1.251 32.734 6.552 46.155zm28.873-11.486l.002.005c.445 1.458.788 2.602 1.062 3.517.587 1.96.86 2.871 1.15 3.565.229.546.47.969.825 1.584l.075.129c.201.347.445.768.753 1.319H8.166C3.214 121.873 2 108.263 2 89.96c.056-18.55 2.686-34.272 7.856-47.197 5.226-12.983 12.656-22.828 22.262-29.597C41.775 6.402 53.334 3 66.843 3c13.51 0 25.07 3.402 34.727 10.167 9.661 6.768 17.089 16.613 22.26 29.594l.001.003c5.225 12.98 7.856 28.702 7.856 47.194 0 18.301-2.312 31.88-7.367 44.788H94.692c5.728-10.681 7.784-25.165 7.784-44.788 0-13.637-1.425-25.148-4.3-34.509-2.87-9.343-6.952-16.477-12.301-21.31-5.36-4.897-11.72-7.352-19.032-7.352-11.041 0-19.743 5.529-26.065 16.35-6.306 10.738-9.428 26.385-9.484 46.817-.056 13.692 1.313 25.258 4.131 34.673z" stroke="#fff" stroke-width="2"/></svg>