<svg width="316" height="289" fill="none" xmlns="http://www.w3.org/2000/svg"><mask id="a" style="mask-type:alpha" maskUnits="userSpaceOnUse" x="12" y="54" width="290" height="181"><path d="M43.71 223.701l-1.165 1.626.01.008 1.154-1.634zm-23.001-30.809l-1.86.735.003.01 1.857-.745zm-7.978-48.631l-2-.006v.006h2zm8.063-48.377l-1.856-.747-.001.004 1.857.742zm23-30.555l-1.147-1.637-.005.003 1.152 1.634zm71.802 0l-1.148 1.639 1.148-1.639zm23 30.555l-1.858.74.003.006 1.855-.746zm0 97.093l-1.857-.741-.002.004 1.859.737zm-23 30.724l-1.154-1.634-.004.003 1.158 1.631zm-10.185-31.997l-1.723-1.015-.001.002 1.724 1.013zm5.177-82.241l1.912-.587-1.912.587zM98.367 88.245l-1.35 1.476.01.008 1.34-1.484zm-44.303 8.912l1.724 1.012.003-.004-1.727-1.008zm-9.506 47.104l2 .008v-.003l-2-.005zm4.159 34.967l-1.916.574.003.01 1.913-.584zm12.221 21.388l-1.35 1.476.01.008 1.34-1.484zm18.757 31.694c-13.622 0-25.2-3.441-34.832-10.243l-2.308 3.268c10.399 7.343 22.811 10.975 37.14 10.975v-4zm-34.822-10.235c-9.596-6.87-17.049-16.806-22.308-29.927l-3.713 1.489c5.492 13.699 13.372 24.302 23.693 31.69l2.328-3.252zM22.57 192.158c-5.203-13.173-7.838-29.12-7.838-47.897h-4c0 19.132 2.683 35.606 8.118 49.366l3.72-1.469zm-7.838-47.891c.056-18.78 2.72-34.641 7.92-47.64l-3.714-1.486c-5.438 13.593-8.15 29.984-8.206 49.114l4 .012zM22.65 96.63c5.258-13.061 12.707-22.91 22.297-29.665l-2.304-3.27C32.315 70.97 24.431 81.492 18.938 95.137l3.711 1.493zm22.293-29.662c9.633-6.75 21.186-10.163 34.753-10.163v-4c-14.27 0-26.652 3.603-37.048 10.886l2.295 3.277zm34.753-10.163c13.567 0 25.12 3.414 34.753 10.163l2.295-3.277c-10.396-7.283-22.777-10.886-37.048-10.886v4zm34.753 10.163c9.643 6.755 17.09 16.6 22.29 29.656l3.716-1.48c-5.437-13.651-13.324-24.176-23.711-31.453l-2.295 3.277zm22.293 29.662c5.255 13.055 7.918 28.912 7.918 47.631h4c0-19.078-2.712-35.472-8.207-49.124l-3.711 1.493zm7.918 47.631c0 18.832-2.663 34.805-7.92 47.975l3.715 1.483c5.493-13.763 8.205-30.268 8.205-49.458h-4zm-7.922 47.979c-5.201 13.114-12.65 23.016-22.295 29.827l2.308 3.268c10.384-7.334 18.269-17.915 23.705-31.62l-3.718-1.475zm-22.299 29.83c-9.573 6.799-21.12 10.24-34.743 10.24v4c14.329 0 26.715-3.632 37.059-10.978l-2.316-3.262zm-34.743-12.325c11.685 0 20.862-5.826 27.441-17.028l-3.449-2.026c-5.983 10.186-13.95 15.054-23.992 15.054v4zm27.439-17.025c6.603-11.201 9.783-27.437 9.783-48.459h-4c0 20.734-3.157 36.127-9.229 46.428l3.446 2.031zm9.783-48.459c0-13.931-1.454-25.743-4.417-35.385l-3.823 1.174c2.808 9.143 4.24 20.53 4.24 34.211h4zm-4.417-35.385c-2.952-9.61-7.179-17.044-12.793-22.115l-2.68 2.968c4.909 4.435 8.831 11.147 11.65 20.321l3.823-1.174zM99.716 86.769c-5.634-5.15-12.34-7.738-20.021-7.738v4c6.69 0 12.432 2.22 17.323 6.69l2.698-2.952zM79.695 79.03c-11.638 0-20.784 5.864-27.358 17.117l3.453 2.017C61.778 87.916 69.719 83.03 79.695 83.03v-4zM52.339 96.144c-6.543 11.14-9.724 27.259-9.781 48.111l4 .011c.056-20.565 3.212-35.849 9.23-46.097l-3.449-2.025zm-9.781 48.108c-.057 13.987 1.34 25.853 4.243 35.55l3.832-1.148c-2.755-9.201-4.131-20.647-4.075-34.385l-4-.017zm4.246 35.56c2.951 9.665 7.176 17.153 12.785 22.28l2.699-2.953c-4.915-4.492-8.839-11.262-11.659-20.495l-3.825 1.168zM59.598 202.1c5.638 5.093 12.37 7.645 20.097 7.645v-4c-6.759 0-12.53-2.2-17.416-6.613l-2.681 2.968zm145.05 24.996l-.81 1.828.004.002.806-1.83zm-22.406-17.484l1.611-1.184-1.611 1.184zm-8.742-25.886v-2h-2.071l.072 2.07 1.999-.07zm31.912 0l1.996-.12-.113-1.88h-1.883v2zm4.668 12.307l-1.557 1.255.005.006.005.007 1.547-1.268zm11.288 8.063l-.758 1.85.758-1.85zm32.336-.34l.816 1.826.009-.004.009-.004-.834-1.818zm11.288-9.166l-1.642-1.142 1.642 1.142zm3.989-13.495l-2-.021v.043l2-.022zm-4.074-13.919l-1.646 1.136 1.646-1.136zm-12.052-9.421l-.797 1.834.007.004.79-1.838zm-34.203-3.395h-2v2h2v-2zm0-24.273v-2h-2v2h2zm31.233-3.14l-.831-1.819-.009.003.84 1.816zm10.779-8.827l1.648 1.132.008-.011-1.656-1.121zm3.819-13.325l-2-.023v.046l2-.023zm-3.31-12.816l-1.715 1.03.009.015.01.015 1.696-1.06zm-9.421-8.572l-.904 1.784.01.005.894-1.789zm-28.941-.17l.782 1.841-.782-1.84zm-10.949 8.233l1.569 1.24.005-.006.005-.006-1.579-1.228zm-4.413 12.561v2h1.931l.068-1.93-1.999-.07zm-30.3 0l-1.999-.046-.048 2.046h2.047v-2zm8.403-25.631l-1.613-1.182-.002.002 1.615 1.18zm21.727-17.314l.83 1.82.01-.005-.84-1.815zm60.684.255l-.909 1.781.007.004.007.003.895-1.788zm19.945 17.398l-1.682 1.082 1.682-1.082zm7.044 24.189h-2v.011l2-.011zm-8.657 24.613l-1.501-1.322-.007.008 1.508 1.314zm-22.746 12.985l-.424-1.954-1.576.342v1.612h2zm0 1.358h-2v1.742l1.725.239.275-1.981zm28.093 13.58l-1.498 1.325.005.006.006.006 1.487-1.337zm9.76 27.244l-2-.011v.011h2zm-8.317 26.14l-1.623-1.169-.001.002 1.624 1.167zm-22.746 17.993l-.821-1.823-.004.001.825 1.822zm-33.1 4.535c-11.993 0-22.574-2.053-31.785-6.11l-1.612 3.66c9.8 4.317 20.946 6.45 33.397 6.45v-4zm-31.781-6.109c-9.168-4.062-16.346-9.683-21.605-16.839l-3.223 2.369c5.718 7.78 13.477 13.816 23.208 18.127l1.62-3.657zm-21.605-16.839c-5.236-7.126-8.028-15.361-8.354-24.771l-3.998.139c.353 10.166 3.389 19.189 9.129 27.001l3.223-2.369zM173.5 185.726h31.912v-4H173.5v4zm29.915-1.88c.307 5.092 2.006 9.596 5.108 13.442l3.114-2.511c-2.557-3.17-3.97-6.87-4.229-11.171l-3.993.24zm5.118 13.455c3.067 3.741 7.116 6.613 12.077 8.645l1.516-3.701c-4.432-1.816-7.908-4.319-10.499-7.48l-3.094 2.536zm12.077 8.645c4.97 2.036 10.494 3.035 16.544 3.035v-4c-5.606 0-10.605-.925-15.028-2.736l-1.516 3.701zm16.544 3.035c6.455 0 12.258-1.115 17.366-3.399l-1.632-3.652c-4.51 2.017-9.741 3.051-15.734 3.051v4zm17.384-3.407c5.097-2.339 9.154-5.612 12.096-9.842l-3.284-2.284c-2.489 3.578-5.958 6.415-10.48 8.49l1.668 3.636zm12.096-9.842c2.971-4.27 4.408-9.182 4.347-14.659l-4 .044c.053 4.708-1.17 8.793-3.631 12.331l3.284 2.284zm4.347-14.615c.061-5.642-1.402-10.693-4.428-15.077l-3.292 2.272c2.519 3.65 3.773 7.879 3.72 12.762l4 .043zm-4.428-15.077c-3.021-4.377-7.361-7.736-12.907-10.122l-1.581 3.675c4.978 2.14 8.672 5.062 11.196 8.719l3.292-2.272zm-12.9-10.119c-5.52-2.4-12.087-3.561-19.639-3.561v4c7.159 0 13.153 1.103 18.044 3.229l1.595-3.668zm-19.639-3.561h-15.362v4h15.362v-4zm-13.362 2v-24.273h-4v24.273h4zm-2-22.273h15.362v-4h-15.362v4zm15.362 0c6.283 0 11.871-1.087 16.71-3.325l-1.679-3.631c-4.213 1.949-9.206 2.956-15.031 2.956v4zm16.702-3.321c4.88-2.229 8.769-5.396 11.596-9.514l-3.297-2.264c-2.378 3.464-5.675 6.182-9.961 8.14l1.662 3.638zm11.604-9.525c2.85-4.214 4.223-9.062 4.163-14.468l-4 .045c.052 4.664-1.121 8.7-3.476 12.181l3.313 2.242zm4.163-14.423c.06-5.245-1.119-9.906-3.614-13.899l-3.392 2.12c2.031 3.25 3.059 7.133 3.006 11.733l4 .046zm-3.595-13.868c-2.415-4.024-5.85-7.136-10.242-9.332l-1.788 3.578c3.755 1.878 6.601 4.481 8.6 7.812l3.43-2.058zm-10.231-9.326c-4.35-2.206-9.397-3.272-15.079-3.272v4c5.182 0 9.585.97 13.27 2.84l1.809-3.568zm-15.079-3.272c-5.565 0-10.756 1.008-15.55 3.045l1.565 3.681c4.259-1.81 8.913-2.726 13.985-2.726v-4zm-15.55 3.045c-4.811 2.045-8.745 4.988-11.745 8.845l3.158 2.456c2.545-3.272 5.91-5.817 10.152-7.62l-1.565-3.681zm-11.735 8.833c-3.061 3.873-4.66 8.48-4.843 13.732l3.998.139c.156-4.48 1.499-8.247 3.983-11.39l-3.138-2.48zm-2.844 11.801h-30.3v4h30.3v-4zm-28.3 2.047c.217-9.353 2.9-17.495 8.018-24.498l-3.23-2.36c-5.633 7.708-8.552 16.654-8.787 26.765l3.999.093zm8.016-24.496c5.213-7.114 12.176-12.676 20.944-16.676l-1.66-3.64c-9.338 4.26-16.86 10.241-22.51 17.952l3.226 2.364zm20.954-16.68c8.757-4.051 18.622-6.097 29.629-6.097v-4c-11.512 0-21.96 2.142-31.309 6.466l1.68 3.63zm29.629-6.097c11.349 0 21.097 2.131 29.306 6.317l1.817-3.563c-8.878-4.527-19.273-6.754-31.123-6.754v4zm29.32 6.324c8.315 4.158 14.676 9.727 19.158 16.693l3.364-2.165c-4.912-7.633-11.847-13.662-20.733-18.105l-1.789 3.577zm19.158 16.693c4.485 6.97 6.726 14.656 6.726 23.106h4c0-9.204-2.455-17.643-7.362-25.27l-3.364 2.163zm6.726 23.117c.054 9.357-2.691 17.07-8.158 23.28l3.002 2.643c6.189-7.029 9.215-15.725 9.156-25.946l-4 .023zm-8.165 23.288c-5.461 6.264-12.648 10.39-21.662 12.345l.848 3.909c9.771-2.119 17.748-6.65 23.83-13.626l-3.016-2.628zm-23.238 14.299v1.358h4v-1.358h-4zm1.725 3.339c11.874 1.649 20.754 6.01 26.87 12.924l2.996-2.65c-6.898-7.798-16.746-12.49-29.316-14.236l-.55 3.962zm26.881 12.936c6.194 6.889 9.302 15.473 9.247 25.896l4 .021c.059-11.303-3.34-20.882-10.273-28.592l-2.974 2.675zm9.247 25.907c0 9.324-2.647 17.626-7.94 24.971l3.245 2.339c5.797-8.045 8.695-17.17 8.695-27.31h-4zm-7.941 24.973c-5.258 7.318-12.547 13.105-21.943 17.337l1.642 3.647c9.955-4.482 17.83-10.69 23.549-18.65l-3.248-2.334zm-21.947 17.338c-9.317 4.221-20.061 6.357-32.275 6.357v4c12.682 0 24.005-2.22 33.925-6.713l-1.65-3.644z" fill="#fff"/></mask><g mask="url(#a)"><path fill="#fff" d="M-18 43h185v130H-18z"/></g></svg>